<?xml version="1.0" encoding="utf-8"?>
<!-- Generator: Adobe Illustrator 24.3.0, SVG Export Plug-In . SVG Version: 6.00 Build 0)  -->
<svg version="1.1" id="Calque_1" xmlns="http://www.w3.org/2000/svg" xmlns:xlink="http://www.w3.org/1999/xlink" x="0px" y="0px"
	 viewBox="0 0 4503.19 2467.58" style="enable-background:new 0 0 4503.19 2467.58;" xml:space="preserve">
<style type="text/css">
	.st0{fill:#FF2301;}
</style>
<g>
	<path class="st0" d="M2734.19,1776.06c-78.47,6.2-151.81-12.77-221-47.12c-98.98-49.15-173.57-123.47-219.11-224.88
		c-51-113.55-63.17-229.75-26.22-350.82c28.09-92.06,73.08-171.66,148.88-232.35c93.06-74.5,197.88-114.97,318.39-110.28
		c13.27,0.52,26.56,0.27,39.83,0.64c137.98,3.76,248.57,62.23,339.29,164.89c43.17,48.85,75.82,104.03,91.64,164.96
		c20.94,80.69,31.12,163.1,13.46,248.46c-23.14,111.85-77.88,202.83-161.86,276.68c-44.78,39.37-98.39,64.47-155.23,85.43
		C2846.74,1772.14,2791.21,1776.38,2734.19,1776.06z M2506.48,1292.26c5.74,29.93,7.64,61.27,18,89.51
		c23.72,64.71,66.02,113.87,132.78,138.54c50.77,18.76,103.52,23,153.38,3.73c74.62-28.84,125.11-82.05,146.9-162.09
		c17.36-63.74,8.96-125.28-17.22-181.78c-24.2-52.23-68.01-88.64-124.11-111.52c-69.38-28.3-135.82-20.09-195.05,16.32
		C2546.91,1130.6,2510.43,1202.96,2506.48,1292.26z"/>
	<path class="st0" d="M1707.76,1774.28c-122.62,11.4-225.81-33.56-318.21-105.82c-50.38-39.4-87.3-91.14-117.51-148.25
		c-58.42-110.42-61.03-227.9-40.78-345.76c13.1-76.24,53.02-143.36,104.01-202.76c50.72-59.09,113.87-101.54,184.63-130.72
		c70.41-29.04,145.65-32.58,221.75-31.64c75.24,0.93,144.03,23.04,208.13,57.17c65.92,35.1,121.8,84.27,164.87,147.24
		c85.51,125,99.49,262.46,70.28,406.18c-12.4,60.99-42.75,115.96-78.92,166.93c-51.71,72.86-122.68,121.17-203.32,155.97
		C1840.18,1769.8,1774.39,1781.17,1707.76,1774.28z M1707.93,1052c-44.27-1.82-83.47,13.46-119.29,36.65
		c-61.8,40-97.52,95.81-104.52,170.99c-10.24,110.02,26.9,208.22,135.48,255.9c124.9,54.85,257.72-8.23,301.44-130.31
		c25.49-71.18,22.75-145.56-17.24-215.48C1859.89,1092.99,1794.29,1056.01,1707.93,1052z"/>
	<path class="st0" d="M4164.87,1444.35c0,43.99-0.38,87.98,0.11,131.96c0.48,42.75-19.32,72.54-53.11,97.85
		c-68.75,51.51-147.77,81.68-229.78,94.18c-92.63,14.12-186.86,17.7-280.02-14.61c-90.62-31.42-165.76-81.23-225.06-155.18
		c-43.15-53.81-73.82-113.11-88.74-182.44c-11.27-52.38-24.24-104.3-16.2-156.84c8.3-54.25,22.84-108.01,39.56-160.41
		c23.34-73.14,72.64-130.86,131.27-176.79c44.04-34.5,96.07-60.56,147.67-83.24c91.04-40.01,188.49-31.5,284.24-24.42
		c34.03,2.51,69.19,12.44,100.25,26.76c42.36,19.53,82.86,44.21,121.32,70.79c59.53,41.14,39.87,162.86-26.11,193.77
		c-59.11,27.7-105.38,10.96-154.16-17.26c-85.97-49.75-197.52-55.62-276.2-2.82c-89.61,60.14-115.21,148.29-103.61,251.1
		c7.78,68.91,37.39,126.27,96.62,162.98c28.69,17.78,62.9,33.67,95.7,36.2c51.32,3.96,103.86-1.84,155.34-8.02
		c30.77-3.69,49.41-61.82,29.47-85.73c-5.02-6.02-15.78-9.26-24.24-10.01c-18.95-1.7-38.11-1.19-57.19-1.31
		c-65.46-0.42-109.7-42.96-108.26-108.65c1.38-62.73,37.95-113.75,108.21-114.04c77.17-0.31,154.36-1.55,231.52-0.82
		c60.91,0.57,100.75,41.81,101.29,102.57C4165.19,1354.71,4164.87,1399.53,4164.87,1444.35z"/>
	<path class="st0" d="M613.65,1294.14c0,111.2,0.52,222.41-0.22,333.61c-0.36,54.14-18.65,99.68-65.86,131.74
		c-44.96,30.53-134.06,19.12-169.31-21.92c-25.12-29.25-34.83-62.51-34.84-99.82c-0.07-227.4-0.17-454.8-0.14-682.2
		c0.01-84.14,31.62-121.93,88.21-139.74c70.13-22.06,133.71-5.09,169.16,72.48c9.06,19.82,14.63,43.03,14.91,64.77
		c1.45,113.67,0.68,227.37,0.68,341.07C615.37,1294.15,614.51,1294.14,613.65,1294.14z"/>
	<path class="st0" d="M1057.24,1774c-40.01,6.87-69.45-13.9-96.03-40.39c-58.17-58-116.12-116.22-173.83-174.68
		c-13.92-14.1-26.71-29.34-39.72-44.32c-31.41-36.17-27.5-104.88,8.64-149.67c28.65-35.5,102.05-56.09,137.92-36.2
		c22.11,12.26,45.92,23.62,63.96,40.68c67.27,63.63,133.07,128.87,198.27,194.64c50.09,50.53,42.26,136.01-13.76,183.49
		C1117.62,1768.8,1090.15,1778.2,1057.24,1774z"/>
	<path class="st0" d="M728.9,1130.47c-6.38-35.63,16.21-62.74,41.01-87.72c64.83-65.3,131.52-128.77,195.65-194.74
		c42.3-43.51,96.64-49.58,144.62-30.75c71.01,27.86,118.27,124.26,43.94,202.54c-62.72,66.05-128.88,128.85-193.96,192.64
		c-20.68,20.28-42.96,36.54-72.97,44.29C810.31,1276.58,723.84,1219.64,728.9,1130.47z"/>
</g>
</svg>
