<svg width="1200" height="760" viewBox="0 0 1200 760" fill="none" xmlns="http://www.w3.org/2000/svg" role="img" aria-labelledby="title desc">
  <title id="title">Text and feedback analysis interface</title>
  <desc id="desc">A generic product interface showing message cards, sentiment tags, and analytics charts.</desc>
  <rect width="1200" height="760" rx="48" fill="#F4F7F1"/>
  <rect x="72" y="72" width="1056" height="616" rx="36" fill="#111817"/>
  <rect x="112" y="116" width="430" height="528" rx="28" fill="#F7FAF4"/>
  <rect x="580" y="116" width="508" height="528" rx="28" fill="#F7FAF4"/>
  <circle cx="154" cy="158" r="14" fill="#D84727"/>
  <circle cx="194" cy="158" r="14" fill="#E8B931"/>
  <circle cx="234" cy="158" r="14" fill="#4F8E6B"/>
  <rect x="148" y="218" width="316" height="22" rx="11" fill="#111817"/>
  <rect x="148" y="270" width="348" height="18" rx="9" fill="#C9D5C6"/>
  <rect x="148" y="306" width="286" height="18" rx="9" fill="#C9D5C6"/>
  <rect x="148" y="342" width="324" height="18" rx="9" fill="#C9D5C6"/>
  <rect x="148" y="402" width="126" height="44" rx="22" fill="#D84727"/>
  <rect x="294" y="402" width="160" height="44" rx="22" fill="#DFE7D6"/>
  <rect x="148" y="492" width="348" height="96" rx="22" fill="#E9EFE5"/>
  <path d="M184 536H456" stroke="#7D8C80" stroke-width="16" stroke-linecap="round"/>
  <path d="M184 568H382" stroke="#A8B7A7" stroke-width="16" stroke-linecap="round"/>
  <rect x="626" y="174" width="186" height="128" rx="26" fill="#E7EFE1"/>
  <rect x="848" y="174" width="194" height="128" rx="26" fill="#111817"/>
  <path d="M666 258C694 206 723 232 748 202C772 173 793 190 804 206" stroke="#D84727" stroke-width="16" stroke-linecap="round" stroke-linejoin="round"/>
  <path d="M884 252H1006" stroke="#F4F7F1" stroke-width="16" stroke-linecap="round"/>
  <path d="M884 218H966" stroke="#7ED1A5" stroke-width="16" stroke-linecap="round"/>
  <rect x="626" y="350" width="416" height="236" rx="26" fill="#E9EFE5"/>
  <path d="M684 520V452" stroke="#4F8E6B" stroke-width="30" stroke-linecap="round"/>
  <path d="M750 520V424" stroke="#D84727" stroke-width="30" stroke-linecap="round"/>
  <path d="M816 520V476" stroke="#E8B931" stroke-width="30" stroke-linecap="round"/>
  <path d="M882 520V402" stroke="#111817" stroke-width="30" stroke-linecap="round"/>
  <path d="M948 520V442" stroke="#6A7A72" stroke-width="30" stroke-linecap="round"/>
  <path d="M672 388H986" stroke="#A8B7A7" stroke-width="18" stroke-linecap="round"/>
  <path d="M672 560H950" stroke="#C9D5C6" stroke-width="16" stroke-linecap="round"/>
  <path d="M726 620C668 620 620 575 620 520C620 465 668 420 726 420" stroke="#D84727" stroke-width="18" stroke-linecap="round"/>
  <path d="M958 116L1088 246" stroke="#D84727" stroke-width="28" stroke-linecap="round"/>
  <path d="M1088 116L958 246" stroke="#7ED1A5" stroke-width="28" stroke-linecap="round"/>
</svg>
